<svg width="17" height="17" viewBox="0 0 17 17" fill="none" xmlns="http://www.w3.org/2000/svg">
<path d="M16.4064 8.79651H9.38892C9.23164 8.79651 9.0808 8.85899 8.96959 8.9702C8.85838 9.08141 8.7959 9.23225 8.7959 9.38953V16.407C8.7959 16.5643 8.85838 16.7151 8.96959 16.8263C9.0808 16.9375 9.23164 17 9.38892 17H15.0701C15.5814 16.999 16.0716 16.7954 16.4332 16.4338C16.7947 16.0722 16.9983 15.5821 16.9994 15.0707V9.38953C16.9994 9.23225 16.9369 9.08141 16.8257 8.9702C16.7145 8.85899 16.5636 8.79651 16.4064 8.79651ZM15.8133 15.0707C15.8133 15.2678 15.735 15.4569 15.5956 15.5963C15.4563 15.7356 15.2672 15.814 15.0701 15.814H9.98195V9.98256H15.8133V15.0707Z" fill="white"/>
<path d="M15.0701 0H9.38892C9.23164 0 9.0808 0.062479 8.96959 0.173692C8.85838 0.284906 8.7959 0.435744 8.7959 0.593024V7.61047C8.7959 7.76775 8.85838 7.91859 8.96959 8.0298C9.0808 8.14101 9.23164 8.20349 9.38892 8.20349H16.4064C16.5636 8.20349 16.7145 8.14101 16.8257 8.0298C16.9369 7.91859 16.9994 7.76775 16.9994 7.61047V1.9293C16.9983 1.41794 16.7947 0.927822 16.4332 0.566234C16.0716 0.204645 15.5814 0.00104467 15.0701 0ZM15.8133 7.01745H9.98195V1.18605H15.0701C15.2672 1.18605 15.4563 1.26435 15.5956 1.40374C15.735 1.54313 15.8133 1.73218 15.8133 1.9293V7.01745Z" fill="white"/>
<path d="M7.61047 8.79651H0.593024C0.435744 8.79651 0.284906 8.85899 0.173692 8.9702C0.062479 9.08141 0 9.23225 0 9.38953V15.0707C0.00104467 15.5821 0.204645 16.0722 0.566234 16.4338C0.927822 16.7954 1.41794 16.999 1.9293 17H7.61047C7.76775 17 7.91859 16.9375 8.0298 16.8263C8.14101 16.7151 8.20349 16.5643 8.20349 16.407V9.38953C8.20349 9.23225 8.14101 9.08141 8.0298 8.9702C7.91859 8.85899 7.76775 8.79651 7.61047 8.79651ZM7.01745 15.814H1.9293C1.73218 15.814 1.54313 15.7356 1.40374 15.5963C1.26435 15.4569 1.18605 15.2678 1.18605 15.0707V9.98256H7.01745V15.814Z" fill="white"/>
<path d="M7.61047 0H1.9293C1.41794 0.00104467 0.927822 0.204645 0.566234 0.566234C0.204645 0.927822 0.00104467 1.41794 0 1.9293V7.61047C0 7.76775 0.062479 7.91859 0.173692 8.0298C0.284906 8.14101 0.435744 8.20349 0.593024 8.20349H7.61047C7.76775 8.20349 7.91859 8.14101 8.0298 8.0298C8.14101 7.91859 8.20349 7.76775 8.20349 7.61047V0.593024C8.20349 0.435744 8.14101 0.284906 8.0298 0.173692C7.91859 0.062479 7.76775 0 7.61047 0ZM7.01745 7.01745H1.18605V1.9293C1.18605 1.73218 1.26435 1.54313 1.40374 1.40374C1.54313 1.26435 1.73218 1.18605 1.9293 1.18605H7.01745V7.01745Z" fill="white"/>
</svg>
